<svg xmlns="http://www.w3.org/2000/svg" viewBox="0 0 100 100"><defs><linearGradient id="sdg" gradientUnits="userSpaceOnUse" x1="20" y1="15" x2="80" y2="85"><stop offset="0" stop-color="#D9B3BE"/><stop offset="1" stop-color="#A68891"/></linearGradient><linearGradient id="sdbg" x1="0" y1="0" x2="0" y2="1"><stop offset="0" stop-color="#4A1521"/><stop offset="1" stop-color="#2E0A1E"/></linearGradient></defs><rect width="100" height="100" rx="22" fill="url(#sdbg)"/><g transform="translate(50 50) rotate(45) scale(0.165) translate(-166 -166)" fill="url(#sdg)"><rect x="83" y="0" width="166" height="38"/><rect x="83" y="0" width="38" height="201"/><rect x="211" y="0" width="38" height="73"/><rect x="294" y="83" width="38" height="166"/><rect x="131" y="83" width="201" height="38"/><rect x="259" y="211" width="73" height="38"/><rect x="83" y="294" width="166" height="38"/><rect x="211" y="131" width="38" height="201"/><rect x="83" y="259" width="38" height="73"/><rect x="0" y="83" width="38" height="166"/><rect x="0" y="211" width="201" height="38"/><rect x="0" y="83" width="73" height="38"/></g></svg>